<?xml version="1.0" encoding="UTF-8"?> <svg xmlns="http://www.w3.org/2000/svg" width="50" height="50" viewBox="0 0 50 50" fill="none"> <rect width="50" height="50" rx="25" fill="#743CFE" fill-opacity="0.1"></rect> <path d="M34.4104 18.9251C34.3118 18.9539 34.2132 18.9808 34.1146 19.0057C33.5119 19.1579 33.4565 18.9571 33.8929 18.514C34.0883 18.3155 34.2609 18.0996 34.4109 17.8664C34.747 17.3434 34.4555 17.1153 33.8836 17.3596C33.6797 17.4467 33.4723 17.5257 33.2621 17.5962C32.6728 17.7941 31.8367 17.4956 31.3117 17.1626C30.6489 16.7423 29.8956 16.5322 29.0516 16.5322C27.8694 16.5322 26.8618 16.9492 26.0281 17.7824C25.1947 18.616 24.7777 19.624 24.7777 20.8059C24.7777 20.9675 24.787 21.1316 24.8052 21.298C24.8352 21.5688 24.3791 21.7651 23.7636 21.6782C22.4321 21.4902 21.1671 21.0868 19.9683 20.4684C18.7793 19.8551 17.73 19.0833 16.8205 18.1531C16.3857 17.7085 15.7977 17.7468 15.6353 18.347C15.5381 18.7067 15.4897 19.0809 15.4897 19.4695C15.4897 20.2018 15.6617 20.8811 16.0057 21.5072C16.1768 21.8187 16.3772 22.1008 16.6073 22.3532C16.9943 22.778 16.9351 23.0245 16.3963 22.8735C15.8578 22.7225 15.4632 22.4982 15.4632 22.5129C15.4632 22.5275 15.4632 22.5394 15.4632 22.5394C15.4632 23.5712 15.7872 24.4778 16.4355 25.2583C16.8349 25.7392 17.2989 26.1107 17.8273 26.3723C18.3845 26.6483 18.644 26.8022 18.3325 26.8426C18.1445 26.8669 17.9554 26.879 17.7652 26.879C17.6364 26.879 17.5013 26.8732 17.3604 26.8612C17.1375 26.8423 17.0974 27.3068 17.4354 27.8286C17.7039 28.2433 18.0477 28.6083 18.4665 28.9235C18.8924 29.2443 19.3515 29.4746 19.8429 29.6148C20.4409 29.7853 20.5609 30.0957 20.0277 30.4154C18.7085 31.207 17.2485 31.6028 15.648 31.6028C15.4677 31.6028 15.2957 31.5987 15.1314 31.5908C14.8461 31.5771 15.0375 31.8283 15.5881 32.1167C17.3088 33.018 19.1722 33.4682 21.1786 33.4682C22.6956 33.4682 24.1202 33.228 25.4523 32.7473C26.7839 32.2667 27.922 31.6226 28.8657 30.8155C29.8095 30.0084 30.6233 29.0801 31.3071 28.0303C31.9906 26.9806 32.4998 25.8846 32.8353 24.7425C33.1702 23.6002 33.338 22.4557 33.338 21.3088C33.338 21.2055 33.3371 21.1127 33.3355 21.031C33.3324 20.8775 33.7385 20.4619 34.1919 20.0366C34.3965 19.8446 34.5917 19.6431 34.7782 19.4317C35.1894 18.965 35.0073 18.7511 34.4104 18.9251Z" fill="#743CFE"></path> </svg> 